<svg width="20" height="20" viewBox="0 0 20 20" fill="none" xmlns="http://www.w3.org/2000/svg">
<path d="M17.5 1.875H2.5C2.155 1.875 1.875 2.155 1.875 2.5C1.875 2.845 2.155 3.125 2.5 3.125H15.9909L2.05812 17.0581C1.81406 17.3022 1.81406 17.6978 2.05812 17.9419C2.18031 18.0641 2.34 18.125 2.5 18.125C2.66 18.125 2.82 18.0641 2.94187 17.9419L16.875 4.00875V17.5C16.875 17.845 17.155 18.125 17.5 18.125C17.845 18.125 18.125 17.845 18.125 17.5V2.5C18.125 2.155 17.845 1.875 17.5 1.875Z" fill="#15283D"/>
</svg>
