<svg width="18" height="20" viewBox="0 0 18 20" fill="none" xmlns="http://www.w3.org/2000/svg">
<g clip-path="url(#clip0_2724_2770)">
<path d="M16.3125 17.5V2.5C16.3125 2.155 16.0605 1.875 15.75 1.875C15.4395 1.875 15.1875 2.155 15.1875 2.5V15.9909L2.64769 2.05812C2.42803 1.81406 2.07197 1.81406 1.85231 2.05812C1.74234 2.18031 1.6875 2.34 1.6875 2.5C1.6875 2.66 1.74234 2.82 1.85231 2.94187L14.3921 16.875H2.25C1.9395 16.875 1.6875 17.155 1.6875 17.5C1.6875 17.845 1.9395 18.125 2.25 18.125H15.75C16.0605 18.125 16.3125 17.845 16.3125 17.5Z" fill="#2D338A"/>
</g>
<defs>
<clipPath id="clip0_2724_2770">
<rect width="20" height="18" fill="white" transform="matrix(0 1 -1 0 18 0)"/>
</clipPath>
</defs>
</svg>
