<svg width="62" height="36" viewBox="0 0 62 36" fill="none" xmlns="http://www.w3.org/2000/svg">
<path d="M58.1788 4.66431C55.6052 1.6128 51.9153 0 47.5081 0C39.5173 0 33.0163 6.63287 33.0163 14.7857C33.0163 22.7147 39.165 29.2059 46.8531 29.5565C46.6374 32.3357 45.0942 34.9982 45.0774 35.0268C44.9608 35.2254 44.9578 35.4726 45.0696 35.6739C45.1814 35.8754 45.3908 36 45.6179 36C48.6139 36 52.7194 33.6738 56.0769 30.0738C59.8411 26.0378 62 21.1684 62 16.7143C62 11.795 60.6787 7.62827 58.1788 4.66431ZM55.164 29.1876C52.4878 32.0571 49.2438 34.1092 46.7162 34.601C47.3025 33.3404 48.1382 31.1535 48.1382 28.9286C48.1382 28.5735 47.8562 28.2857 47.5081 28.2857C40.2122 28.2857 34.2764 22.2296 34.2764 14.7857C34.2764 7.34181 40.2122 1.28571 47.5081 1.28571C55.6698 1.28571 60.7398 7.19756 60.7398 16.7143C60.7398 20.8418 58.7074 25.3881 55.164 29.1876ZM14.4919 0C6.50105 0 0 6.63287 0 14.7857C0 22.7147 6.14871 29.2059 13.8368 29.5565C13.621 32.3357 12.0779 34.9982 12.0611 35.0268C11.9446 35.2254 11.9416 35.4726 12.0533 35.6739C12.1652 35.8754 12.3747 36 12.6016 36C15.5977 36 19.7031 33.6738 23.0606 30.0738C26.8248 26.0378 28.9837 21.1684 28.9837 16.7143C28.9837 11.795 27.6623 7.62827 25.1625 4.66431C22.5889 1.6128 18.899 0 14.4919 0ZM22.1477 29.1876C19.4715 32.0571 16.2275 34.1092 13.6999 34.601C14.2862 33.3404 15.122 31.1535 15.122 28.9286C15.122 28.5735 14.8398 28.2857 14.4919 28.2857C7.19591 28.2857 1.26016 22.2296 1.26016 14.7857C1.26016 7.34181 7.19591 1.28571 14.4919 1.28571C22.6534 1.28571 27.7236 7.19756 27.7236 16.7143C27.7236 20.8418 25.6913 25.3881 22.1477 29.1876Z" fill="#2D338A"/>
</svg>
