<svg width="30" height="29" viewBox="0 0 30 29" fill="none" xmlns="http://www.w3.org/2000/svg">
<g clip-path="url(#clip0_2063_65)">
<path d="M15.1514 29C23.1596 29 29.6514 22.5081 29.6514 14.5C29.6514 6.49187 23.1596 0 15.1514 0C7.1433 0 0.651428 6.49187 0.651428 14.5C0.651428 22.5081 7.1433 29 15.1514 29Z" fill="white"/>
<path d="M18.7967 15.0676H16.2094V24.5465H12.2893V15.0676H10.4249V11.7364H12.2893V9.58071C12.2893 8.03915 13.0216 5.62524 16.2443 5.62524L19.148 5.63739V8.87093H17.0411C16.6956 8.87093 16.2096 9.04359 16.2096 9.77896V11.7395H19.1392L18.7967 15.0676Z" fill="#2D338A"/>
</g>
<defs>
<clipPath id="clip0_2063_65">
<rect width="29" height="29" fill="white" transform="translate(0.651428)"/>
</clipPath>
</defs>
</svg>
