<svg width="30" height="29" viewBox="0 0 30 29" fill="none" xmlns="http://www.w3.org/2000/svg">
<circle cx="14.8611" cy="14.5" r="14.5" fill="white"/>
<g clip-path="url(#clip0_7052_312)">
<path d="M18.3537 7.48389H12.3039C9.84525 7.48389 7.84497 9.48417 7.84497 11.9429V17.9927C7.84497 20.4513 9.84525 22.4516 12.3039 22.4516H18.3537C20.8124 22.4516 22.8127 20.4513 22.8127 17.9927V11.9429C22.8127 9.48417 20.8124 7.48389 18.3537 7.48389ZM21.307 17.9927C21.307 19.6237 19.9847 20.9459 18.3537 20.9459H12.3039C10.6729 20.9459 9.35072 19.6237 9.35072 17.9927V11.9429C9.35072 10.3118 10.6729 8.98964 12.3039 8.98964H18.3537C19.9847 8.98964 21.307 10.3118 21.307 11.9429V17.9927Z" fill="#2D338A"/>
<path d="M15.3288 11.0964C13.1943 11.0964 11.4576 12.833 11.4576 14.9676C11.4576 17.1022 13.1943 18.8388 15.3288 18.8388C17.4634 18.8388 19.2 17.1022 19.2 14.9676C19.2 12.833 17.4634 11.0964 15.3288 11.0964ZM15.3288 17.3331C14.0224 17.3331 12.9634 16.274 12.9634 14.9676C12.9634 13.6612 14.0225 12.6022 15.3288 12.6022C16.6352 12.6022 17.6943 13.6612 17.6943 14.9676C17.6943 16.274 16.6352 17.3331 15.3288 17.3331Z" fill="#2D338A"/>
<path d="M19.2075 12.0535C19.7198 12.0535 20.1351 11.6382 20.1351 11.1259C20.1351 10.6136 19.7198 10.1982 19.2075 10.1982C18.6952 10.1982 18.2799 10.6136 18.2799 11.1259C18.2799 11.6382 18.6952 12.0535 19.2075 12.0535Z" fill="#2D338A"/>
</g>
<defs>
<clipPath id="clip0_7052_312">
<rect width="14.9677" height="14.9677" fill="white" transform="translate(7.84497 7.48389)"/>
</clipPath>
</defs>
</svg>
