<svg width="30" height="29" viewBox="0 0 30 29" fill="none" xmlns="http://www.w3.org/2000/svg">
<g clip-path="url(#clip0_2063_50)">
<path d="M15.4418 28.9988C23.4499 28.9988 29.9418 22.5069 29.9418 14.4988C29.9418 6.49065 23.4499 -0.0012207 15.4418 -0.0012207C7.43364 -0.0012207 0.941772 6.49065 0.941772 14.4988C0.941772 22.5069 7.43364 28.9988 15.4418 28.9988Z" fill="white"/>
<path d="M24.1054 15.6664V21.6444H20.6395V16.067C20.6395 14.6666 20.1391 13.7103 18.8842 13.7103C17.9265 13.7103 17.3576 14.3541 17.1064 14.9776C17.0151 15.2004 16.9916 15.5098 16.9916 15.8223V21.6442H13.5255C13.5255 21.6442 13.572 12.1979 13.5255 11.2201H16.9919V12.6973C16.9849 12.7089 16.9751 12.7203 16.9689 12.7314H16.9919V12.6973C17.4525 11.9885 18.2739 10.9753 20.1156 10.9753C22.3958 10.9753 24.1054 12.4652 24.1054 15.6664ZM9.89955 6.19531C8.71392 6.19531 7.93823 6.97358 7.93823 7.99612C7.93823 8.99694 8.69143 9.7977 9.85406 9.7977H9.87655C11.0854 9.7977 11.8371 8.99694 11.8371 7.99612C11.8141 6.97358 11.0854 6.19531 9.89955 6.19531ZM8.14424 21.6444H11.6091V11.2201H8.14424V21.6444Z" fill="#2D338A"/>
</g>
<defs>
<clipPath id="clip0_2063_50">
<rect width="29" height="29" fill="white" transform="translate(0.941772)"/>
</clipPath>
</defs>
</svg>
