<svg width="11" height="14" viewBox="0 0 11 14" fill="none" xmlns="http://www.w3.org/2000/svg">
<path fill-rule="evenodd" clip-rule="evenodd" d="M10.6616 5.32875C10.659 5.95332 10.5226 6.56982 10.2616 7.13669C9.81383 8.13739 9.26068 9.08688 8.6116 9.96926C7.75682 11.1346 6.84223 12.2548 5.87158 13.3247C5.82349 13.3864 5.76994 13.4434 5.71158 13.4954C5.66761 13.5518 5.61146 13.5974 5.54736 13.6288C5.48326 13.6601 5.41288 13.6764 5.34158 13.6764C5.27028 13.6764 5.19993 13.6601 5.13583 13.6288C5.07173 13.5974 5.01555 13.5518 4.97159 13.4954C4.54159 13.0233 4.1116 12.551 3.7016 12.0587C2.75229 10.9688 1.90221 9.79575 1.16159 8.55322C0.85505 8.00602 0.577997 7.4425 0.331602 6.86545C-0.0687631 5.93239 -0.108006 4.88263 0.221586 3.92203C0.482182 2.95045 1.01762 2.07601 1.76306 1.40387C2.5085 0.731724 3.43197 0.291185 4.4216 0.135465C5.7421 -0.106139 7.10461 0.16623 8.23215 0.897684C9.35968 1.62914 10.1676 2.76469 10.4916 4.0731C10.5916 4.47491 10.6316 4.89655 10.7016 5.31845L10.6616 5.32875ZM7.76159 5.40919C7.76159 4.9284 7.61967 4.45815 7.35376 4.05839C7.08784 3.65862 6.70987 3.34724 6.26767 3.16325C5.82547 2.97926 5.33891 2.93113 4.86947 3.02493C4.40004 3.11873 3.96884 3.35006 3.6304 3.69003C3.29196 4.03 3.06145 4.46334 2.96808 4.93489C2.8747 5.40645 2.92264 5.89496 3.1058 6.33916C3.28897 6.78335 3.59913 7.16289 3.9971 7.43C4.39507 7.69712 4.86295 7.84005 5.34158 7.84005C5.98341 7.84005 6.59896 7.58375 7.05279 7.12786C7.50663 6.67197 7.76159 6.05392 7.76159 5.40919Z" fill="white"/>
</svg>
