<svg width="783" height="613" viewBox="0 0 783 613" fill="none" xmlns="http://www.w3.org/2000/svg">
<g opacity="0.1">
<path d="M274.895 505.062C242.902 511.765 212.426 526.205 187.388 547.262C170.632 561.343 157.354 579.251 139.334 591.852C104.432 616.25 61.5843 615.721 21.5819 606.228L22.425 598.702C56.0202 601.323 90.838 586.672 109.912 558.574L1.91792 567.728L0.0421531 566.396L0 560.349C31.6352 555.318 62.6171 545.296 90.4586 529.461C125.592 509.481 152.275 478.381 187.662 458.951C217.294 442.693 250.489 433.581 284.042 429.817C209.981 363.283 168.44 269.474 150.146 172.474C140.472 121.119 137.016 69.4052 139.081 17.2684C139.313 11.5599 138.849 5.78811 139.06 0.100841C140.135 -1.16769 150.799 9.93199 152.001 10.9468C191.624 44.5207 241.384 60.8003 293.379 53.3582C329.588 48.1572 363.9 30.9897 390.414 6.04182C391.552 5.85153 406.199 18.1775 408.792 20.0168C476.741 68.3058 560.245 62.4071 625.623 12.9765L641.535 0.946532C640.776 7.75434 642.21 14.837 642.399 21.3911C647.036 169.915 609.141 328.715 494.867 429.838C530.612 432.967 565.914 442.862 597.086 460.643C632.135 480.622 658.712 511.595 694.289 531.152C721.603 546.184 751.742 555.339 782.387 560.751L781.565 567.432L672.348 558.595C671.737 559.144 676.247 564.515 676.922 565.297C697.661 589.251 728.263 601.091 759.856 598.723L760.699 606.249C749.529 608.364 738.338 611.175 726.935 612.106C697.956 614.453 668.217 609.315 643.769 592.739C627.983 582.041 616.328 566.734 602.376 554.007C576.178 530.116 543.257 512.145 508.208 505.951L508.861 517.473C481.399 536.078 449.953 549.229 416.843 553.478C367.293 559.842 315.404 547.136 274.895 518.065V505.105V505.062ZM627.372 31.0108L597.929 47.8612C540.686 75.5575 477.247 75.5153 420.995 45.3664C410.499 39.7426 401.036 32.5965 391.13 26.0001C351.254 57.1215 302.147 74.3313 251.143 69.4474C215.798 66.0647 181.676 51.8782 153.223 30.9897C151.411 179.599 193.015 345.037 317.111 437.175C339.726 453.962 364.574 468.381 390.772 478.74C450.523 452.503 500.768 411.022 538.873 358.166C599.952 273.47 626.592 167.992 628.215 64.0562C628.384 52.9988 627.857 42.0259 627.351 31.0108H627.372ZM282.377 438.168C242.48 441.065 203.152 455.526 170.463 478.444C153.603 490.263 138.765 504.745 122.305 517.071C100.47 533.435 76.0004 547.051 49.9082 555.212L124.075 550.201C113.621 569.758 97.1608 585.932 77.3071 595.657L54.0812 604.537C80.2156 606.545 106.076 603.311 129.007 589.843C149.092 578.046 162.518 558.87 179.884 543.922C206.925 520.623 239.867 504.682 274.811 497.451L274.917 448.634L282.399 438.168H282.377ZM731.53 555.233C713.173 549.165 695.49 540.751 679.114 530.497C647.963 510.982 623.115 483.244 590.742 465.336C563.575 450.304 531.665 440.875 500.726 438.19L507.344 448.676L508.587 497.599C532.846 503.244 556.24 512.378 577.316 525.613C626.824 556.713 640.313 603.628 708.599 605.425L728.221 604.537L707.103 596.904C689.23 588.342 674.182 575.53 663.222 558.996C662.611 558.066 657.827 550.561 658.248 550.201L731.572 555.233H731.53ZM484.877 439.014L442.324 468.613L404.893 489.164C427.149 487.641 448.984 481.637 469.027 472.017L484.877 439.014ZM374.037 489.164C367.757 484.259 359.685 481.468 352.645 477.62C333.866 467.345 316.057 455.336 299.049 442.355L313.718 472.355C332.834 481.151 353.109 486.732 374.037 489.164ZM282.377 462.419V514.682C343.013 555.508 422.407 558.404 486.268 522.759C488.965 521.258 499.271 515.528 500.705 513.837C503.107 510.961 500.747 500.221 500.684 496.31C500.452 484.998 501.358 473.645 499.883 462.419C457.309 492.885 402.869 503.879 351.549 492.948C326.658 487.641 303.39 476.542 282.399 462.419H282.377Z" fill="white"/>
<path d="M319.471 426.456L308.237 402.607C303.874 401.169 286.381 404.235 285.011 399.098L295.592 344.17C251.543 313.704 229.349 259.093 250.341 207.422C252.006 203.32 256.39 197.147 257.402 193.595C258.118 191.037 253.945 193.531 254.093 191.544C262.186 188.88 265.748 180.148 271.164 173.954C316.731 121.986 399.033 111.267 459.1 143.424C529.431 181.079 550.865 264.886 494.508 326.136C492.548 328.271 484.223 335.015 484.075 336.58C486.288 349.413 488.796 362.268 490.609 375.164C491.22 379.604 494.002 394.319 493.075 397.427C492.484 399.415 489.091 401.444 487.026 401.381C474.759 401.148 461.713 398.759 449.489 398.802C434.525 398.823 415.219 403.453 401.141 402.248C396.061 401.804 390.434 397.935 387.083 398.083C383.458 398.231 379.116 402.142 374.479 402.248C369.843 402.353 362.888 400.07 357.85 399.711C343.645 398.717 329.566 401.064 315.403 401.402L313.296 403.03C316.689 404.489 317.131 406.053 321.178 406.434C338.566 408.062 357.155 405.652 374.5 405.525C406.304 405.271 438.15 405.778 469.954 405.567C469.596 407.343 466.645 406.497 465.929 408.612C465.338 410.345 465.507 423.305 466.603 424.384C467.846 425.631 470.565 424.828 470.797 426.456H319.555H319.471ZM381.54 130.506C358.862 133.678 346.28 154.482 337.575 173.573C349.209 181.734 361.138 189.599 370.686 200.318C364.405 204.229 356.059 204.758 351.106 210.741C348.345 214.103 345.437 220.234 348.619 224.124C347.924 207.676 368.599 203.066 381.54 201.544V130.485V130.506ZM386.556 131.754V198.225C391.298 196.978 395.766 191.185 398.569 187.273C402.553 181.713 406.009 174.694 408.391 168.287L425.715 162.262C419.097 150.126 408.222 136.194 394.502 132.155C392.984 131.711 387.146 129.639 386.556 131.754ZM311.968 173.975C318.754 173.658 325.604 174.207 332.39 173.975C335.32 164.566 340.842 156.258 346.216 148.139L356.965 135.517C337.933 142.621 321.621 156.469 310.745 173.573C310.535 176.131 311.609 173.996 311.989 173.975H311.968ZM446.539 159.746C447.761 158.541 434.104 147.589 432.628 146.532C426.284 141.965 419.013 137.864 411.531 135.517C418.845 142.388 423.629 150.211 429.172 158.393C430.226 159.957 432.101 160.169 432.354 163.552L446.539 159.725V159.746ZM340.715 137.187C313.338 143.805 287.793 160.824 270.722 183.151C281.154 179.133 292.051 176.322 303.221 175.222L319.829 153.446L340.694 137.187H340.715ZM466.54 154.735C455.686 146.3 441.628 140.147 428.202 137.187L441.08 146.405L452.124 157.124L466.519 154.735H466.54ZM474.865 160.592C474.275 159.217 471.176 156.68 469.807 156.786C468.605 156.892 460.386 160.401 458.362 161.205C457.098 161.712 456.107 160.719 456.529 163.087L474.865 160.571V160.592ZM460.702 168.118H472.778C474.233 168.118 480.281 169.831 482.178 170.402C484.497 171.078 486.33 172.474 488.606 173.15L480.26 164.799C474.169 164.947 467.952 165.581 461.945 166.469C460.491 166.681 460.554 166.025 460.702 168.118ZM484.876 252.561H520.284C521.443 251.821 521.464 250.89 521.59 249.664C521.801 247.613 520.979 239.664 520.684 237.106C518.134 214.378 507.701 192.728 492.337 176.089L464.032 172.305C463.8 172.474 464.474 173.362 464.854 173.552C467.446 174.842 474.907 175.37 478.574 176.512C483.632 178.076 488.733 180.381 492.358 184.419C492.527 186.597 492 185.265 490.904 185.053C483.443 183.616 475.898 180.106 468.205 179.831C468.437 181.269 469.87 181.29 470.902 181.734C478.047 184.778 486.077 186.808 491.536 192.791C485.593 193.595 480.492 188.584 474.865 187.358L485.698 196.132L479.059 194.884L478.911 197.231L476.53 197.802C482.684 215.329 485.761 233.913 484.876 252.561ZM292.388 185.688L264.715 191.565L260.732 199.049L270.743 193.637L292.388 185.688ZM247.391 252.561H284.063C283.831 240.488 283.852 228.268 287.393 216.619C286.487 215.879 279.11 223.152 276.56 221.207L283.199 214.483L289.88 204.885C286.044 207.189 282.777 210.382 278.984 212.75C273.925 215.9 260.9 223.046 271.523 211.967C275.991 207.316 282.187 204.631 286.55 199.874C278.562 202.855 271.712 208.606 263.809 211.735C263.008 212.052 261.259 213.088 260.732 211.989C267.982 202.876 278.33 199.007 287.962 193.341C288.363 193.108 290.618 192.094 289.458 191.502L257.57 203.405C250.784 219.029 247.222 235.393 247.391 252.539V252.561ZM449.869 252.561H479.86C480.302 237.444 478.448 222.243 474.043 207.824C473.579 206.322 471.071 197.739 470.628 197.422C470.102 197.062 468.247 198.162 466.751 197.612C464.432 196.766 462.303 192.622 459.859 191.544L462.346 199.071C457.856 200.889 455.622 195.688 451.513 194.906C450.901 195.476 456.992 200.847 453.578 202.411L444.009 196.555C442.682 198.246 448.499 202.94 448.899 204.652C449.131 206.09 446.686 206.766 446.496 208.69C446.054 213.067 449.468 226.978 449.826 232.941C450.206 239.452 449.574 246.07 449.826 252.582L449.869 252.561ZM299.891 205.752C298.732 204.652 293.315 210.995 293.231 212.433C294.496 213.638 300.418 206.259 299.891 205.752ZM444.874 252.561C445.379 239.008 443.82 225.583 442.239 212.158L433.64 206.576L439.815 214.652C433.261 224.42 417.517 217.697 409.065 213.278L408.222 224.145C413.175 221.989 434.42 221.037 436.548 226.26C437.244 227.972 435.41 227.444 434.483 227.507C428.497 227.93 422.47 227.761 416.568 229.177L435.495 232.327C442.239 239.156 427.823 235.689 424.071 235.034L436.464 242.243L435.705 245.055L419.898 240.065C421.015 241.736 438.15 251.503 428.708 250.933C426.01 250.763 424.388 247.529 421.563 247.592C420.72 248.374 424.999 252.603 425.315 252.603H444.895L444.874 252.561ZM289.058 252.561H319.049L319.934 222.095L317.469 221.587L317.363 215.794C314.202 218.458 314.623 222.856 309.038 221.651L310.682 215.794C306.909 218.796 305.54 222.052 299.87 220.805L305.687 209.113C301.809 211.714 299.828 216.344 296.118 219.156C294.664 220.255 291.882 220.678 291.503 221.397C290.576 223.173 289.206 235.203 289.037 237.972C288.742 242.814 289.248 247.761 289.037 252.603L289.058 252.561ZM376.545 219.135C367.419 224.209 357.935 213.997 350.706 223.3C353.467 222.623 355.574 221.249 358.63 221.249C364.595 221.249 371.55 226.682 376.545 219.135ZM324.044 252.561H356.544L357.387 250.066L349.884 251.715L353.214 247.55L349.884 245.88H353.214L351.549 244.209C355.511 242.708 357.914 244.357 361.56 245.499C362.888 244.463 364.869 234.505 363.962 233.427L345.479 228.141C342.718 223.257 339.936 225.921 336.29 224.822C335.025 224.441 334.498 222.623 332.791 222.475C331.084 222.327 328.555 223.786 326.236 222.539L325.014 223.87L324.044 252.582V252.561ZM359.052 252.561H371.128C371.402 252.561 376.081 250.806 376.292 250.637C377.283 249.939 381.434 243.533 380.697 242.539L375.344 240.89C373.91 241.186 373.257 251.144 366.871 251.715C364.257 251.947 360.569 249.157 359.031 252.561H359.052ZM418.212 252.561L408.222 242.539C408.707 244.019 413.723 252.117 414.208 252.391C415.198 252.962 416.99 252.434 418.212 252.561ZM400.698 252.561C401.183 252.074 398.569 247.571 398.211 248.396L399.054 252.561H400.698ZM284.042 258.417H248.213C251.416 290.299 270.216 320.681 296.962 337.848C297.931 333.239 298.331 328.356 299.638 323.789C300.102 322.203 302.146 319.286 302.146 319.032C302.146 318.419 297.257 310.279 296.414 308.313C289.585 292.456 285.054 275.775 284.063 258.417H284.042ZM319.049 258.417H289.058C291.271 278.523 296.013 298.968 306.973 316.093C308.912 316.114 319.66 298.862 324.887 300.215C321.705 286.515 319.323 272.519 319.049 258.417ZM381.54 301.061V259.263C379.137 259.664 377.662 259.389 376.123 261.757L375.723 258.417C373.341 258.311 371.002 257.952 369.463 260.087L367.862 258.332L324.044 258.396C324.972 272.138 326.679 285.902 329.967 299.285C347.102 300.342 364.911 295.543 381.561 301.04L381.54 301.061ZM393.933 258.544H390.834C391.214 261.779 387.757 262.138 386.978 263.428C385.945 265.119 386.092 299.073 386.64 303.091C386.893 304.951 391.804 311.484 393.279 309.708C398.738 303.26 401.815 300.152 410.351 297.742C420.784 294.803 428.814 296.917 439.099 297.34C443.04 284.739 443.44 271.419 444.874 258.417H418.212L418.613 260.087L416.969 260.975L409.044 258.417C411.299 264.844 403.902 264.908 403.965 258.501L399.897 258.417C402.595 264.421 394.122 264.104 393.954 258.544H393.933ZM479.881 258.417H449.89L444.895 297.72H457.814C460.09 297.72 462.725 307.953 464.074 310.258C465.486 310.554 465.76 309.898 466.455 308.884C469.09 305.014 473.284 291.991 474.654 287.022C477.267 277.635 478.553 268.058 479.881 258.417ZM520.705 258.417H484.876C483.548 278.65 477.773 297.594 469.069 315.712C470.291 321.294 478.827 321.992 481.188 324.402C482.726 325.945 481.967 328.123 483.632 329.455C503.591 310.765 518.071 286.156 520.705 258.396V258.417ZM455.707 302.731C434.42 304.063 407.168 292.456 394.438 316.072C392.521 335.438 391.888 355.1 391.551 374.615C400.487 367.426 413.07 363.579 424.472 362.923C430.12 362.606 462.493 367.004 464.053 365.418L455.707 302.731ZM386.535 377.131C386.893 356.242 389.654 335.269 388.643 314.402C385.355 306.283 376.503 303.936 368.599 302.731L326.573 304.422L310.703 370.429C327.627 366.56 346.174 363.875 363.604 365.439C373.194 366.285 380.065 370.281 386.535 377.131ZM292.388 387.998L305.54 371.528L320.714 310.258C315.888 315.099 312.242 320.639 305.729 323.429L292.388 388.019V387.998ZM487.363 388.844L478.047 328.377C475.054 326.093 471.703 325.269 468.647 322.774C466.224 320.787 464.664 318.165 462.388 316.114L469.259 368.145L487.363 388.844ZM483.19 393.03C483.422 391.677 482.579 390.767 481.883 389.753C480.007 386.983 467.172 371.591 465.17 370.555C461.165 368.505 452.63 369.985 447.74 369.646C438.993 369.033 430.984 367.194 421.922 367.913C410.372 368.822 390.118 374.34 390.708 388.844C395.05 389.901 395.935 386.624 398.759 384.805C417.622 372.712 433.788 379.583 454.337 377.194L455.749 379.224L455.348 381.38C450.606 383.304 445.316 383.156 440.3 382.987C429.319 382.607 423.207 380.408 411.7 383.579C407.147 384.827 403.122 387.49 399.033 389.71C401.415 397.935 410.815 393.051 417.053 392.311C439.689 389.668 457.941 391.444 480.281 392.163C481.398 392.205 482.199 392.628 483.169 393.03H483.19ZM385.65 388.78C387.23 386.708 382.299 379.266 380.718 377.575C369.59 365.545 337.912 369.625 323.054 372.374C319.766 372.987 312.326 374.319 309.67 375.672C305.476 377.786 297.573 390.577 294.074 394.7C314.665 394.552 335.636 391.381 356.185 392.163C361.454 392.374 369.316 394.552 374.29 393.685C381.287 392.459 377.261 389.964 373.784 387.892C361.117 380.344 347.966 383.473 334.077 383.833L334.856 380.069C349.989 376.539 363.414 376.898 377.135 384.53C379.074 385.609 383.964 391.042 385.671 388.801L385.65 388.78Z" fill="white"/>
<path d="M282.398 118.793L293.253 135.919C291.082 136.532 286.845 141.521 284.991 140.443L265.79 111.795C266.001 110.59 271.46 107.186 272.788 107.165C275.928 107.123 293.105 115.516 294.053 114.607C293.4 110.189 284.59 102.493 284.021 99.1312C283.768 97.5878 290.007 94.8816 291.166 93.8668L311.42 122.557C309.713 124.396 306.383 127.208 303.875 126.997C298.838 126.553 288.047 120.083 282.419 118.793H282.398Z" fill="white"/>
<path d="M489.134 115.347C487.848 110.675 485.235 107.06 479.924 107.99C478.448 115.094 487.911 118.582 487.321 126.637C486.036 144.27 458.236 133.762 457.33 120.062L466.477 117.99C466.034 121.711 472.168 129.386 475.729 126.785C479.291 124.185 471.114 116.32 470.25 112.958C465.191 93.2959 494.782 97.5032 496.489 113.254L489.134 115.347Z" fill="white"/>
<path d="M389.044 72.8091H379.876V108.751H389.044V72.8091Z" fill="white"/>
<path d="M342.149 103.909C349.484 101.711 350.263 111.288 344.91 112.578C339.22 113.952 336.69 105.537 342.149 103.909Z" fill="white"/>
<path d="M422.975 103.909C430.036 101.774 431.996 110.907 425.736 112.599C420.868 113.931 418.444 105.262 422.975 103.909Z" fill="white"/>
<path d="M543.3 479.036C541.677 473.603 534.258 473.074 531.16 477.514C525.659 485.358 532.636 493.371 541.003 489.354L543.195 492.525C531.687 498.508 520.011 487.81 527.198 476.055C530.423 470.77 536.682 469.48 542.12 472.292C545.597 474.089 549.433 479.205 543.3 479.036Z" fill="white"/>
<path d="M552.383 484.153C563.427 482.673 562.289 491.003 558.643 498.382C557.21 501.299 557.147 501.045 554.048 500.052C553.058 498.762 560.898 488.424 555.123 486.796C550.128 485.379 549.138 494.301 547.43 497.198L544.058 496.711L550.76 475.844L554.87 477.049L552.404 484.153H552.383Z" fill="white"/>
<path d="M626.55 533.478C625.897 538.425 628.299 540.983 633.147 541.068L633.21 544.345C625.033 544.979 619.405 534.81 625.77 528.932C633.674 521.638 644.359 533.203 636.14 540.983L626.571 533.478H626.55ZM634.664 531.173C633.442 529.926 629.037 529.714 629.058 531.385C629.058 531.786 635.149 536.628 635.697 535.973C635.739 534.577 635.655 532.167 634.664 531.152V531.173Z" fill="white"/>
<path d="M596.432 519.164L594.472 519.228C592.976 515.401 590.889 517.494 588.212 516.331C583.26 514.175 584.018 505.147 592.744 506.754C594.957 507.156 596.58 510.39 598.203 507.959C597.465 504.851 594.367 503.731 591.542 504.196V500.876C605.389 502.103 601.954 510.454 596.453 519.164H596.432ZM589.098 510.137C587.96 514.64 593.06 516.204 595.694 512.97C594.894 509.946 591.711 508.657 589.098 510.137Z" fill="white"/>
<path d="M572.363 507.557C568.274 503.815 560.202 506.268 560.75 498.847C561.214 492.377 569.413 494.724 573.206 496.669C573.691 492.441 568.928 491.679 565.703 491.658V489.163C581.089 488.656 576.178 497.916 572.363 507.557ZM566.293 497.663C565.408 497.874 563.806 499.439 564.038 500.432C566.799 503.244 569.939 503.646 571.52 499.608C571.478 498.699 567.452 497.367 566.293 497.663Z" fill="white"/>
<path d="M627.246 521.871C627.899 522.97 627.182 524.408 626.129 525.084L622.777 522.611L617.698 530.095L620.691 535.148C606.17 533.499 618.478 524.387 618.899 521.215C619.026 520.221 616.876 518.699 618.204 516.754C622.061 518.72 622.103 515.422 625.18 514.323L627.246 516.352L624.885 520.518L627.267 521.913L627.246 521.871Z" fill="white"/>
<path d="M617.36 517.6L614.114 518.361C608.171 506.395 597.148 523.816 610.637 524.344L610.679 527.642C588.402 524.767 608.234 498.191 617.36 517.6Z" fill="white"/>
<path d="M584.187 497.346C585.03 497.832 590.721 497.219 590.679 499.608C590.636 502.504 584.883 500.432 583.197 501.257C581.131 502.251 579.93 507.938 578.202 509.714L574.871 509.228L580.731 495.041H582.775C583.639 495.422 583.766 497.113 584.208 497.346H584.187Z" fill="white"/>
<path d="M645.687 540.159C648.49 539.524 653.591 541.364 650.261 544.345C642.821 539.989 641.135 545.761 636.119 550.18L634.411 548.531C633.611 547.516 634.39 547.157 634.833 546.438C637.236 542.569 641.367 539.355 644.444 536.015C646.109 537.326 646.825 538.171 645.687 540.18V540.159Z" fill="white"/>
<path d="M244.967 495.929C246.063 495.105 255.358 497.261 252.386 490.009C245.41 494.872 237.907 490.009 240.099 481.425C241.511 475.95 252.597 473.624 253.904 477.197C254.894 479.924 257.107 491.954 256.391 494.428C255.358 497.959 247.981 500.559 244.862 498.804C243.745 498.403 244.862 496.014 244.967 495.929ZM250.721 479.142C240.162 477.282 242.775 493.223 251.164 486.669L250.721 479.142Z" fill="white"/>
<path d="M139.165 536.712L154.045 539.334C153.897 546.459 140.24 539.778 139.06 541.004C137.669 544.894 143.296 546.776 143.928 549.081C144.75 552.083 142.179 552.4 139.861 550.645C135.414 547.305 130.967 540.899 126.625 537.114L129.365 534.366L135.73 539.313C136.425 534.07 132.294 528.721 137.816 525.105L139.165 536.691V536.712Z" fill="white"/>
<path d="M195.712 494.174L198.115 509.523L195.27 511.511L187.387 505.062C192.867 525.549 181.149 511.765 174.046 505.485L178.219 503.794L185.701 510.94L183.214 500.094C188.441 497.367 190.085 503.815 194.047 505.929C194.553 501.933 189.031 494.005 195.712 494.216V494.174Z" fill="white"/>
<path d="M239.889 494.174C233.903 493.244 231.943 499.84 226.126 495.845C218.749 490.77 222.901 480.051 231.543 479.946L229.899 473.307L233.208 472.44L239.889 494.174ZM230.489 483.434C224.25 484.343 225.409 495.697 232.681 493.244C235.252 492.377 234.493 482.863 230.489 483.434Z" fill="white"/>
<path d="M261.554 482.483C261.597 485.865 265.306 486.267 267.751 485.802C269.753 485.421 272.177 482.039 273.21 486.246C269.31 490.178 261.133 490.813 258.414 485.231C253.862 475.907 265.053 468.085 271.186 475.759C277.319 483.434 266.802 481.7 261.576 482.504L261.554 482.483ZM267.983 476.859C263.999 473.497 259.742 479.079 260.711 479.967L269.036 479.121C269.036 479.121 268.193 477.049 267.983 476.859Z" fill="white"/>
<path d="M210.718 496.711C210.36 499.819 215.228 499.418 217.167 498.572C219.212 497.684 221.045 493.413 222.373 497.938C218.2 503.963 208.294 504.365 206.103 496.733C203.089 486.246 217.167 481.299 221.53 492.102L210.718 496.711ZM216.556 490.009C214.322 487.62 208.168 490.263 209.074 494.174C209.475 494.597 214.069 492.589 214.933 492.102C215.545 491.764 217.863 491.426 216.556 490.009Z" fill="white"/>
<path d="M167.976 509.418C177.734 507.156 183.214 518.699 175.31 524.281C164.056 532.209 156.595 512.061 167.976 509.418ZM168.819 512.737C162.875 514.471 166.648 523.731 172.402 522.293C177.924 520.581 174.762 511.003 168.819 512.737Z" fill="white"/>
<path d="M149.662 524.894C150.526 524.154 150.336 522.145 152.064 521.025C158.661 516.733 162.476 526.141 166.544 529.714L163.762 531.744C160.368 530.137 157.312 521.088 153.287 524.725C149.261 528.361 155.816 533.372 158.219 536.416L155.31 539.334L145.784 527.96C145.383 525.697 148.882 525.592 149.662 524.915V524.894Z" fill="white"/>
<path d="M199 485.865L207.388 505.887L203.637 505.929C202.941 505.168 195.586 489.692 195.249 488.381C194.553 485.633 196.808 485.612 199 485.886V485.865Z" fill="white"/>
<path d="M322.401 523.414L329.124 497.62C342.255 498.064 356.65 506.691 347.229 521.236C341.285 530.412 330.726 525.465 322.38 523.414H322.401ZM342.107 519.841C343.161 518.678 344.784 513.625 344.826 512.061C344.974 505.929 338.229 503.287 333.171 502.906L328.555 520.158C332.117 521.934 339.199 523.118 342.128 519.862L342.107 519.841Z" fill="white"/>
<path d="M397.284 514.344C397.242 528.15 403.249 546.67 381.541 540.159L382.91 536.755C388.854 538.192 394.039 538.89 393.196 530.983C383.922 536.543 376.145 528.551 380.023 518.995C382.594 512.631 391.636 512.61 397.284 514.365V514.344ZM393.217 517.6C385.967 516.479 381.33 520.665 385.208 527.706C394.27 531.089 393.554 524.386 393.217 517.6Z" fill="white"/>
<path d="M479.839 505.845L466.54 510.073C468.795 513.731 471.24 514.048 474.929 512.209C477.605 510.877 478.069 508.318 481.546 510.073C478.764 519.038 465.381 520.37 461.988 510.898C456.782 496.394 477.373 491.172 479.86 505.845H479.839ZM474.043 504.217C472.99 498.043 464.643 501.384 465.718 506.733L474.043 504.217Z" fill="white"/>
<path d="M419.857 521.744L406.537 523.456C406.663 529.63 414.25 527.896 417.939 525.253L420.7 527.198C415.389 533.964 403.122 533.351 401.605 523.795C399.118 508.149 420.426 506.902 419.857 521.723V521.744ZM413.829 516.162C411.11 513.625 405.082 516.056 405.715 520.116L414.883 519.27C415.283 518.932 414.314 516.606 413.829 516.162Z" fill="white"/>
<path d="M424.873 528.467L421.543 510.094L425.231 509.185L426.939 510.898C431.87 505.38 437.793 506.458 440.111 513.583C441.123 516.648 444.369 526.501 439.437 526.015C435.559 525.634 437.666 513.054 433.43 511.87C430.543 511.278 427.592 513.393 427.381 516.395C427.086 521.088 433.894 529.841 424.852 528.467H424.873Z" fill="white"/>
<path d="M459.037 503.392C457.794 508.318 454.527 506.014 451.302 506.902C445.886 508.403 447.171 521.046 455.96 518.276C458.173 517.579 459.037 513.498 462.367 518.023C458.236 523.879 449.131 525.063 445.19 518.551C439.036 508.445 448.921 499.544 459.058 503.392H459.037Z" fill="white"/>
<path d="M368.221 505.063L365.713 531.807H360.718L363.204 505.041L368.221 505.063Z" fill="white"/>
<path d="M351.613 530.053L354.036 511.743C355.849 511.743 358.842 511.151 358.863 513.625L356.376 529.566L355.174 530.919L351.592 530.053H351.613Z" fill="white"/>
<path d="M375.723 513.414L374.88 532.653H370.707C370.602 526.205 370.602 519.799 371.55 513.435H375.702L375.723 513.414Z" fill="white"/>
<path d="M359.79 504.322C360.317 504.914 359.664 508.065 359.896 509.227L354.943 508.361C353.214 504.322 357.746 502.018 359.79 504.322Z" fill="white"/>
<path d="M376.504 505.929L375.745 510.538L371.593 510.031L371.551 505.062L376.504 505.929Z" fill="white"/>
<path d="M338.04 346.453C346.028 345.629 354.627 346.284 362.383 348.293C365.228 349.033 379.37 353.494 378.211 357.468C377.178 360.999 366.176 354.508 363.668 353.705C355.364 351.041 346.512 350.682 337.829 351.231C335.237 351.401 326.532 354.974 326.532 350.787C326.532 347.806 335.616 346.707 338.061 346.453H338.04Z" fill="white"/>
<path d="M384.639 320.533C385.756 321.844 385.271 322.922 384.849 324.444C380.508 324.846 377.599 321.04 373.785 319.286C368.052 316.643 358.125 314.571 351.865 314.507C347.798 314.465 339.599 316.727 336.143 316.114C332.412 315.438 333.592 312.372 337.323 311.442C348.03 308.778 362.888 309.983 373.194 314.021C375.681 314.994 383.121 318.715 384.639 320.533Z" fill="white"/>
<path d="M330.789 331.231C331 330.935 336.817 329.709 337.913 329.603C350.769 328.144 367.42 329.687 378.147 337.531C380.065 338.927 382.299 339.265 381.498 342.373C380.824 343.641 380.234 343.916 378.822 343.557C377.03 343.113 370.939 338.483 367.609 337.214C359.664 334.17 351.275 333.218 342.824 333.683C340.442 333.81 333.614 335.755 332.096 335.29C330.663 334.846 330.22 332.077 330.789 331.231Z" fill="white"/>
<path d="M425.547 311.315C430.521 310.977 437.666 312.076 442.113 314.254C444.326 315.353 449.026 317.827 444.853 319.899C443.863 320.385 435.116 316.643 432.566 316.304C426.264 315.459 419.899 316.664 414.04 319.032C410.815 320.321 405.631 324.571 403.418 325.142C400.53 325.882 399.898 322.732 401.457 320.617C402.005 319.899 407.443 316.833 408.729 316.199C413.492 313.852 420.236 311.674 425.526 311.294L425.547 311.315Z" fill="white"/>
<path d="M421.354 328.017C425.527 327.446 432.461 327.425 436.592 328.186C439.521 328.715 447.72 330.914 446.476 334.825C445.549 337.722 438.446 333.683 435.875 333.07C428.899 331.442 424.157 331.95 417.412 334.106C414.588 335.015 403.692 341.421 402.828 341.168C400.783 340.597 401.331 337.616 402.744 336.115C405.441 333.261 417.286 328.567 421.333 328.017H421.354Z" fill="white"/>
<path d="M446.433 347.976C447.045 348.969 446.539 351.633 445.211 352.014C444.136 352.331 438.488 349.603 436.549 349.117C426.622 346.601 418.803 348.906 409.866 353.282C407.611 354.382 404.724 357.764 402.406 356.686C397.347 354.318 406.663 349.455 409.023 348.25C417.053 344.191 425.4 342.732 434.378 343.789C436.127 344.001 445.907 347.13 446.433 347.976Z" fill="white"/>
</g>
</svg>
