<svg width="21" height="20" viewBox="0 0 21 20" fill="none" xmlns="http://www.w3.org/2000/svg">
<path d="M5.05291 13.2947C7.03304 15.6527 9.41667 17.5093 12.1373 18.823C13.1731 19.3121 14.5583 19.8923 16.1017 19.9917C16.1974 19.9959 16.2889 20 16.3846 20C17.4204 20 18.2524 19.6436 18.9304 18.9101C18.9346 18.9059 18.9429 18.8976 18.9471 18.8893C19.1883 18.5993 19.4629 18.3382 19.7499 18.0605C19.9455 17.874 20.1451 17.6792 20.3365 17.4803C21.2226 16.5603 21.2226 15.3916 20.3282 14.5006L17.828 12.0099C17.4037 11.5707 16.8962 11.3386 16.3638 11.3386C15.8313 11.3386 15.3196 11.5707 14.8828 12.0058L13.3936 13.4894C13.2563 13.4107 13.1149 13.3402 12.9817 13.2739C12.8153 13.191 12.6614 13.1123 12.5241 13.0253C11.168 12.1674 9.93667 11.0485 8.75941 9.61044C8.16454 8.86034 7.76518 8.23042 7.48647 7.58807C7.8775 7.23581 8.24358 6.86697 8.59717 6.50642C8.72197 6.37795 8.85092 6.24948 8.97988 6.12101C9.42915 5.67344 9.67043 5.15541 9.67043 4.62909C9.67043 4.10278 9.43331 3.58475 8.97988 3.13717L7.74022 1.9022C7.59463 1.75715 7.45735 1.61625 7.31591 1.4712C7.04136 1.18939 6.75432 0.899296 6.47145 0.63821C6.04297 0.219644 5.53962 0 5.00715 0C4.47884 0 3.97133 0.219644 3.52622 0.642354L1.9704 2.19229C1.40465 2.75591 1.08434 3.4397 1.01778 4.23125C0.938741 5.22172 1.12178 6.27435 1.59601 7.54662C2.324 9.51513 3.42222 11.3427 5.05291 13.2947ZM2.0328 4.31828C2.08272 3.76709 2.29488 3.30709 2.69423 2.90924L4.24172 1.36759C4.483 1.13552 4.74924 1.01533 5.00715 1.01533C5.26091 1.01533 5.51882 1.13552 5.75594 1.37588C6.03465 1.63282 6.29673 1.9022 6.5796 2.18815C6.72104 2.3332 6.86664 2.47824 7.01224 2.62743L8.25189 3.86241C8.50981 4.11935 8.64293 4.38044 8.64293 4.63738C8.64293 4.89432 8.50981 5.15541 8.25189 5.41235C8.12294 5.54082 7.99398 5.67344 7.86502 5.80191C7.47815 6.19146 7.11623 6.5603 6.71688 6.91256C6.70856 6.92085 6.7044 6.92499 6.69608 6.93328C6.35081 7.27725 6.40489 7.60464 6.48809 7.85329C6.49225 7.86573 6.49641 7.87402 6.50057 7.88645C6.82088 8.65313 7.26599 9.38251 7.9607 10.2528C9.20868 11.7862 10.5232 12.9755 11.9709 13.8914C12.1497 14.0075 12.3411 14.0986 12.52 14.1898C12.6864 14.2727 12.8403 14.3514 12.9776 14.4385C12.9942 14.4467 13.0067 14.455 13.0233 14.4633C13.1606 14.5338 13.2937 14.5669 13.4268 14.5669C13.7596 14.5669 13.976 14.3556 14.0467 14.2851L15.6025 12.7352C15.8438 12.4948 16.1058 12.3663 16.3638 12.3663C16.6799 12.3663 16.9378 12.5611 17.1001 12.7352L19.6085 15.23C20.1077 15.7273 20.1035 16.2661 19.596 16.7924C19.4213 16.9789 19.2383 17.1571 19.0427 17.3436C18.7516 17.6254 18.4479 17.9155 18.1733 18.2429C17.6949 18.7567 17.125 18.9971 16.3887 18.9971C16.318 18.9971 16.2431 18.993 16.1724 18.9888C14.8079 18.9018 13.5392 18.3713 12.5865 17.9196C9.99906 16.6722 7.72774 14.9026 5.8433 12.6564C4.29164 10.7957 3.2475 9.06341 2.55695 7.2068C2.12848 6.06714 1.96624 5.15126 2.0328 4.31828Z" fill="#C02026"/>
</svg>
