<svg width="12" height="12" viewBox="0 0 12 12" fill="none" xmlns="http://www.w3.org/2000/svg">
<path fill-rule="evenodd" clip-rule="evenodd" d="M0 3.89098C0.0117451 4.39205 0.106399 4.88764 0.280029 5.35754C0.445654 5.79074 0.656826 6.20492 0.910004 6.59307C1.20664 7.04296 1.54121 7.46667 1.91 7.85902C2.31116 8.28377 2.73515 8.68588 3.18002 9.06415C3.69591 9.50511 4.24785 9.9018 4.83002 10.2497C5.27401 10.5226 5.74694 10.7447 6.24002 10.9123C6.58444 11.0302 6.93944 11.1143 7.30002 11.1634C7.80965 11.2238 8.32612 11.1833 8.82001 11.0433C9.29492 10.9164 9.73342 10.679 10.1 10.3502C10.2783 10.1945 10.4423 10.0228 10.59 9.83765C10.685 9.71014 10.7886 9.58945 10.9 9.47616C10.988 9.38204 11.0591 9.27296 11.11 9.1544C11.1492 9.05529 11.165 8.94873 11.1563 8.84245C11.1477 8.73617 11.1147 8.63317 11.06 8.54178C10.9461 8.35377 10.7966 8.18999 10.62 8.05963C10.3837 7.87736 10.1365 7.70963 9.88 7.55737C9.70127 7.43685 9.51412 7.3296 9.32001 7.2361C9.12255 7.1345 8.90964 7.06641 8.69 7.035C8.54577 7.01755 8.39951 7.03208 8.26135 7.07719C8.12319 7.12229 7.99647 7.19714 7.89001 7.29643C7.76001 7.41698 7.65002 7.55726 7.52002 7.68784C7.39002 7.81843 7.31002 7.95922 7.21002 8.09985C7.09807 8.26554 6.93171 8.38627 6.74002 8.44123C6.57288 8.48551 6.39715 8.48551 6.23001 8.44123C6.00161 8.38233 5.78275 8.29098 5.58002 8.16999C5.22434 7.96173 4.88945 7.7198 4.58002 7.44701C4.27126 7.20038 3.98052 6.93153 3.71002 6.6431C3.46085 6.38747 3.2457 6.10086 3.07001 5.78966C2.97466 5.62345 2.91665 5.43827 2.90002 5.24718C2.89094 5.13753 2.90495 5.0273 2.94113 4.92345C2.97731 4.81961 3.03485 4.72439 3.11002 4.64437C3.13791 4.60291 3.17159 4.56584 3.21002 4.53401C3.3818 4.38153 3.53914 4.21339 3.68002 4.03175C3.76456 3.93761 3.84145 3.83654 3.91 3.7301C3.98676 3.60126 4.03379 3.4568 4.04764 3.3073C4.06148 3.15779 4.04181 3.00719 3.99002 2.86635C3.9142 2.62389 3.79189 2.39851 3.63 2.20321C3.44 1.96212 3.24001 1.73112 3.04001 1.49004C2.90206 1.3213 2.748 1.16657 2.58002 1.028C2.46292 0.923135 2.32723 0.841604 2.18002 0.787167C2.06375 0.745965 1.9387 0.736279 1.81754 0.75921C1.69637 0.782141 1.5834 0.836757 1.49002 0.917637C1.40002 0.997999 1.32001 1.09847 1.23001 1.18888L0.840027 1.62051C0.6029 1.89095 0.413512 2.20026 0.280029 2.53478C0.150011 2.83803 0.0689719 3.16037 0.0400085 3.48927C0.0100085 3.61985 0.01 3.76039 0 3.89098Z" fill="white"/>
</svg>
