<svg width="80" height="80" viewBox="0 0 80 80" fill="none" xmlns="http://www.w3.org/2000/svg">
<circle cx="40" cy="40" r="39.5" fill="#EEF4F8" stroke="#C02026"/>
<g clip-path="url(#clip0_2734_1820)">
<mask id="mask0_2734_1820" style="mask-type:luminance" maskUnits="userSpaceOnUse" x="20" y="20" width="40" height="40">
<path d="M20 20H60V60H20V20Z" fill="white"/>
</mask>
<g mask="url(#mask0_2734_1820)">
<path d="M40 58.8274C40 49.2118 34.5674 40.421 25.9668 36.1213C23.221 34.7481 21.1719 33.7239 21.1719 33.7239C21.1719 41.4164 25.518 48.4487 32.3984 51.8893C34.1752 52.7773 35.8622 53.6207 37.1934 54.2867C38.9136 55.1465 40 56.9044 40 58.828V58.8274Z" stroke="#C02026" stroke-miterlimit="10" stroke-linecap="round" stroke-linejoin="round"/>
<path d="M40 46.2754C40 36.6598 45.4326 27.869 54.0332 23.5687C56.779 22.1961 58.8281 21.1719 58.8281 21.1719C58.8281 28.8644 54.482 35.8967 47.6016 39.3372C45.8248 40.2253 44.1378 41.0687 42.8066 41.734C41.0864 42.5944 40 44.3524 40 46.2754ZM40 46.2754V46.276" stroke="#C02026" stroke-miterlimit="10" stroke-linecap="round" stroke-linejoin="round"/>
<path d="M40 46.276V58.8281" stroke="#C02026" stroke-miterlimit="10" stroke-linecap="round" stroke-linejoin="round"/>
</g>
</g>
<defs>
<clipPath id="clip0_2734_1820">
<rect width="40" height="40" fill="white" transform="translate(20 20)"/>
</clipPath>
</defs>
</svg>
