<svg width="30" height="29" viewBox="0 0 30 29" fill="none" xmlns="http://www.w3.org/2000/svg">
<g clip-path="url(#clip0_2063_60)">
<path d="M15.0879 28.9997C23.096 28.9997 29.5878 22.5079 29.5878 14.4999C29.5878 6.49181 23.096 0 15.0879 0C7.07989 0 0.588074 6.49181 0.588074 14.4999C0.588074 22.5079 7.07989 28.9997 15.0879 28.9997Z" fill="white"/>
<path d="M23.9687 10.4207C23.3473 10.6962 22.6789 10.8826 21.978 10.9658C22.6937 10.537 23.2429 9.85851 23.5022 9.04871C22.8325 9.44599 22.0904 9.73419 21.3013 9.88953C20.669 9.21621 19.7683 8.79541 18.7708 8.79541C16.8571 8.79541 15.3049 10.3475 15.3049 12.2613C15.3049 12.5329 15.3357 12.7974 15.3951 13.0512C12.5147 12.9067 9.96072 11.527 8.25118 9.42945C7.9529 9.94122 7.78179 10.537 7.78179 11.1721C7.78179 12.3742 8.39411 13.4355 9.32358 14.0569C8.75572 14.0391 8.22093 13.8832 7.75387 13.6229C7.75361 13.6377 7.75361 13.6524 7.75361 13.6669C7.75361 15.3462 8.9488 16.7468 10.534 17.065C10.2435 17.1446 9.93668 17.1868 9.62109 17.1868C9.39725 17.1868 9.18039 17.1653 8.96896 17.125C9.40992 18.5016 10.6896 19.5037 12.2066 19.5319C11.0202 20.4616 9.52597 21.0155 7.90172 21.0155C7.62257 21.0155 7.346 20.9993 7.07538 20.9669C8.60839 21.9507 10.4306 22.5243 12.3878 22.5243C18.7628 22.5243 22.2491 17.2431 22.2491 12.6627C22.2491 12.5125 22.2457 12.3629 22.239 12.2145C22.9167 11.726 23.5042 11.1157 23.9687 10.4207Z" fill="#2D338A"/>
</g>
<defs>
<clipPath id="clip0_2063_60">
<rect width="29" height="29" fill="white" transform="translate(0.586914)"/>
</clipPath>
</defs>
</svg>
